<?xml version="1.0" encoding="UTF-8" standalone="no"?>
<!-- Created with Inkscape (http://www.inkscape.org/) -->

<svg
   width="210.50497mm"
   height="85.312187mm"
   viewBox="0 0 210.50497 85.312187"
   version="1.1"
   id="svg5"
   xmlns="http://www.w3.org/2000/svg"
   xmlns:svg="http://www.w3.org/2000/svg">
  <defs
     id="defs2">
    <rect
       x="349.80124"
       y="267.53131"
       width="688.96667"
       height="261.58057"
       id="rect236" />
  </defs>
  <g
     id="layer1"
     transform="translate(-50.754599,-51.557611)">
    <g
       id="g5624">
      <path
         id="rect1416"
         style="fill:#000033;stroke:#000000;stroke-width:0;stroke-linejoin:round"
         d="M 68.448858,51.55761 H 243.56532 c 9.80263,0 17.69427,7.89164 17.69427,17.694261 v 49.923669 c 0,9.80262 -7.89164,17.69426 -17.69427,17.69426 H 68.448858 c -9.802621,0 -17.694261,-7.89164 -17.694261,-17.69426 V 69.251871 c 0,-9.802621 7.89164,-17.694261 17.694261,-17.694261 z" />
      <g
         aria-label="JCZOM"
         transform="matrix(0.26458333,0,0,0.26458333,-31.45745,-5.4779312)"
         id="text234"
         style="font-weight:bold;font-size:192px;-inkscape-font-specification:'sans-serif, Bold';direction:rtl;white-space:pre;shape-inside:url(#rect236);stroke:#000000;stroke-width:0;stroke-linejoin:round">
        <path
           d="m 412.65539,482.54729 q -5.568,0 -9.792,-0.768 -4.224,-0.576 -7.296,-1.344 v -24.192 q 3.072,0.768 6.528,1.344 3.264,0.576 7.104,0.576 4.992,0 9.024,-1.92 4.224,-1.92 6.528,-7.296 2.304,-5.376 2.304,-15.36 v -128.448 h 28.992 v 128.256 q 0,17.664 -5.568,28.416 -5.376,10.944 -15.168,15.744 -9.792,4.992 -22.656,4.992 z"
           style="fill:#ffffff"
           id="path5421" />
        <path
           d="m 549.74327,327.60329 q -16.512,0 -26.112,12.48 -9.408,12.288 -9.408,33.984 0,21.696 9.024,33.792 9.216,11.904 27.648,11.904 9.024,0 17.28,-2.112 8.448,-2.112 16.896,-5.376 v 24.96 q -16.32,6.912 -37.44,6.912 -21.888,0 -36.096,-8.64 -14.016,-8.832 -20.928,-24.576 -6.72,-15.936 -6.72,-37.056 0,-20.736 7.68,-36.672 7.68,-15.936 22.464,-24.96 14.784,-9.024 36.096,-9.024 10.176,0 20.544,2.304 10.56,2.112 19.968,6.72 l -9.6,23.424 q -6.912,-3.264 -14.784,-5.568 -7.68,-2.496 -16.512,-2.496 z"
           style="fill:#ffffff"
           id="path5423" />
        <path
           d="m 703.15131,442.22729 h -101.952 v -18.816 l 65.664,-94.272 h -63.936 v -24 h 98.496 v 18.816 l -65.664,94.272 h 67.392 z"
           style="fill:#808080"
           id="path5425" />
        <path
           d="m 846.95936,373.49129 q 0,21.312 -7.104,37.248 -6.912,15.744 -21.312,24.576 -14.4,8.832 -36.864,8.832 -22.272,0 -36.864,-8.832 -14.4,-8.832 -21.504,-24.768 -6.912,-15.936 -6.912,-37.248 0,-21.12 6.912,-36.864 7.104,-15.936 21.504,-24.576 14.592,-8.832 37.056,-8.832 22.272,0 36.672,8.832 14.592,8.64 21.504,24.576 6.912,15.744 6.912,37.056 z m -99.648,0 q 0,21.504 8.064,33.792 8.256,12.096 26.304,12.096 18.432,0 26.304,-12.096 8.064,-12.288 8.064,-33.792 0,-21.504 -8.064,-33.792 -7.872,-12.288 -26.112,-12.288 -18.24,0 -26.496,12.288 -8.064,12.288 -8.064,33.792 z"
           style="fill:#808080"
           id="path5427" />
        <path
           d="m 932.97543,442.22729 -33.024,-107.52 h -0.768 q 0.192,3.84 0.576,11.52 0.384,7.68 0.768,16.512 0.384,8.64 0.384,15.744 v 63.744 h -25.92 v -137.088 h 39.552 l 32.448,104.832 h 0.576 l 34.368,-104.832 h 39.55197 v 137.088 h -27.07197 v -64.896 q 0,-6.528 0.192,-14.976 0.384,-8.448 0.576,-15.936 0.384,-7.68 0.576,-11.52 h -0.768 l -35.328,107.328 z"
           style="fill:#808080"
           id="path5429" />
      </g>
    </g>
  </g>
</svg>
