<?xml version="1.0" encoding="UTF-8" standalone="no"?>
<!-- Created with Inkscape (http://www.inkscape.org/) -->

<svg
   width="148.45969mm"
   height="119.29083mm"
   viewBox="0 0 148.45969 119.29083"
   version="1.1"
   id="svg5"
   xmlns="http://www.w3.org/2000/svg"
   xmlns:svg="http://www.w3.org/2000/svg">
  <defs
     id="defs2" />
  <g
     id="layer1"
     transform="translate(-71.36611,-38.888276)">
    <g
       id="g5345"
       transform="translate(-7.2875361,4.0849199)">
      <path
         id="rect1124"
         style="fill:#ffe4e1;stroke:#8b0000;stroke-width:1.68344;stroke-linejoin:round"
         d="M 97.382556,46.525962 H 208.38441 c 9.9095,0 17.88719,8.841517 17.88719,19.824027 v 67.078441 c 0,10.9825 -7.97769,19.82403 -17.88719,19.82403 H 97.382556 c -9.909505,0 -17.887191,-8.84153 -17.887191,-19.82403 V 66.349989 c 0,-10.98251 7.977686,-19.824027 17.887191,-19.824027 z" />
      <path
         d="m 117.72636,84.271005 q -6.46778,0 -10.22811,5.959921 -3.68514,5.868232 -3.68514,16.229324 0,10.36111 3.53472,16.13764 3.60992,5.68485 10.82976,5.68485 3.53472,0 6.76861,-1.0086 3.30909,-1.0086 6.61819,-2.56735 v 11.91983 q -6.39257,3.30089 -14.6653,3.30089 -8.57357,0 -14.13886,-4.1261 -5.49008,-4.2178 -8.197528,-11.73646 -2.632237,-7.61037 -2.632237,-17.69639 0,-9.902637 3.008272,-17.512998 3.008272,-7.610362 8.799173,-11.919845 5.79092,-4.309482 14.13886,-4.309482 3.98595,0 8.04711,1.100291 4.13637,1.008604 7.8215,3.209191 l -3.76033,11.186314 q -2.70744,-1.558749 -5.79092,-2.659041 -3.00827,-1.191985 -6.46777,-1.191985 z"
         id="path1544"
         style="font-weight:bold;font-size:266.667px;-inkscape-font-specification:'sans-serif, Bold';direction:rtl;white-space:pre;fill:#8b0000;stroke:#8b0000;stroke-width:0;stroke-linejoin:round" />
      <path
         d="m 180.19558,123.70852 h -12.13557 l -13.1939,-21.23725 -4.51556,3.24556 v 17.99169 h -10.6539 V 73.331791 h 10.6539 v 23.071695 q 1.05833,-1.481669 2.11667,-2.963338 1.05833,-1.481667 2.11667,-2.963336 l 13.61723,-17.145021 h 11.85335 l -17.56835,22.295583 z"
         id="path1546"
         style="font-weight:bold;font-size:266.667px;-inkscape-font-specification:'sans-serif, Bold';direction:rtl;white-space:pre;fill:#8b0000;stroke:#8b0000;stroke-width:0;stroke-linejoin:round" />
      <path
         d="m 192.06294,139.88215 q -2.01855,-0.41853 -3.5037,-1.08418 -1.49668,-0.57859 -2.56419,-1.15765 l 1.45432,-10.96618 q 1.06751,0.57904 2.28578,1.09993 1.14865,0.50644 2.54076,0.79509 1.80973,0.37524 3.38686,-0.19202 1.64674,-0.55282 2.80518,-2.81657 1.15844,-2.26375 1.75864,-6.78947 l 7.72175,-58.225244 10.51038,2.179269 -7.71021,58.138215 q -1.06189,8.00705 -3.7268,12.46237 -2.60685,4.55681 -6.44527,5.99659 -3.84996,1.52682 -8.5135,0.55985 z"
         id="path1548"
         style="font-weight:bold;font-size:266.667px;-inkscape-font-specification:'sans-serif, Bold';direction:rtl;white-space:pre;fill:#8b0000;stroke:#8b0000;stroke-width:0;stroke-linejoin:round" />
      <path
         id="path1608"
         style="fill:#8b0000;stroke:#8b0000;stroke-width:1.6;stroke-linejoin:round"
         d="m 208.74098,46.718347 a 7.6421638,11.556472 0 0 1 6.07195,-10.874262 7.6421638,11.556472 0 0 1 8.44519,6.282121 7.6421638,11.556472 0 0 1 -1.9904,13.910399 7.6421638,11.556472 0 0 1 -9.40715,0.44075 l 4.5171,-9.321631 z" />
      <path
         id="rect3247"
         style="fill:#8b0000;stroke:#8b0000;stroke-width:0.760269;stroke-linejoin:round"
         d="m 140.52336,132.44405 h 7.88185 v 7.02615 h -7.88185 z" />
      <path
         id="rect3249"
         style="fill:#8b0000;stroke:#8b0000;stroke-width:0.760269;stroke-linejoin:round"
         d="m 153.33781,128.65389 h 10.22334 v 10.86822 h -10.22334 z" />
      <path
         id="rect3251"
         style="fill:#8b0000;stroke:#8b0000;stroke-width:0.760269;stroke-linejoin:round"
         d="m 168.7298,125.62651 h 10.39427 v 13.91092 H 168.7298 Z" />
    </g>
  </g>
</svg>
