<?xml version="1.0" encoding="UTF-8" standalone="no"?>
<!-- Created with Inkscape (http://www.inkscape.org/) -->

<svg
   width="217.25024mm"
   height="126.04274mm"
   viewBox="0 0 217.25024 126.04274"
   version="1.1"
   id="svg5"
   inkscape:version="1.2.2 (b0a8486541, 2022-12-01)"
   sodipodi:docname="coindereves.svg"
   inkscape:dataloss="true"
   xmlns:inkscape="http://www.inkscape.org/namespaces/inkscape"
   xmlns:sodipodi="http://sodipodi.sourceforge.net/DTD/sodipodi-0.dtd"
   xmlns="http://www.w3.org/2000/svg"
   xmlns:svg="http://www.w3.org/2000/svg">
  <sodipodi:namedview
     id="namedview7"
     pagecolor="#ffffff"
     bordercolor="#000000"
     borderopacity="0.25"
     inkscape:showpageshadow="2"
     inkscape:pageopacity="0.0"
     inkscape:pagecheckerboard="0"
     inkscape:deskcolor="#d1d1d1"
     inkscape:document-units="mm"
     showgrid="false"
     inkscape:zoom="0.67521728"
     inkscape:cx="550.93377"
     inkscape:cy="371.73219"
     inkscape:window-width="1366"
     inkscape:window-height="731"
     inkscape:window-x="0"
     inkscape:window-y="0"
     inkscape:window-maximized="1"
     inkscape:current-layer="layer1" />
  <defs
     id="defs2" />
  <g
     inkscape:label="Layer 1"
     inkscape:groupmode="layer"
     id="layer1"
     transform="translate(-58.243712,-8.886019)">
    <g
       id="g626"
       inkscape:export-filename=".svg"
       inkscape:export-xdpi="5.6100001"
       inkscape:export-ydpi="5.6100001">
      <path
         id="rect545"
         style="fill:#a9a9a9;stroke:#a9a9a9;stroke-width:3.22595;stroke-linejoin:round"
         d="M 62.725136,13.598576 H 122.91341 V 130.00493 H 62.725136 Z" />
      <g
         id="g607"
         transform="translate(-0.39364026,0.0704104)">
        <path
           d="m 109.89197,39.636954 q -4.84701,0 -7.66504,2.420105 -2.761662,2.382873 -2.761662,6.590133 0,4.20726 2.648942,6.5529 2.70531,2.308409 8.11592,2.308409 2.64894,0 5.07245,-0.409556 2.47986,-0.409557 4.95972,-1.042507 v 4.840211 q -4.79064,1.340366 -10.9903,1.340366 -6.4251,0 -10.595779,-1.675458 -4.114318,-1.71269 -6.143297,-4.765746 -1.972619,-3.090289 -1.972619,-7.185852 0,-4.021098 2.254421,-7.111386 2.254421,-3.090289 6.594182,-4.840211 4.339762,-1.749922 10.595782,-1.749922 2.9871,0 6.03057,0.446788 3.09983,0.409557 5.8615,1.303134 l -2.81803,4.542352 q -2.02898,-0.632951 -4.33976,-1.079739 -2.25442,-0.484021 -4.847,-0.484021 z"
           style="font-weight:bold;font-size:45.8087px;-inkscape-font-specification:'sans-serif, Bold';text-align:center;direction:rtl;text-anchor:middle;fill:#000080;stroke:#000080;stroke-width:1.03881;stroke-linejoin:round"
           id="path552" />
        <g
           id="g596">
          <path
             d="m 163.94169,48.535495 q 0,4.132795 -2.08534,7.223084 -2.02897,3.053055 -6.25602,4.765746 -4.22704,1.71269 -10.82122,1.71269 -6.53782,0 -10.82122,-1.71269 -4.22704,-1.712691 -6.31237,-4.802979 -2.02898,-3.090288 -2.02898,-7.223084 0,-4.095563 2.02898,-7.148619 2.08533,-3.090288 6.31237,-4.765746 4.2834,-1.71269 10.87758,-1.71269 6.53782,0 10.76486,1.71269 4.28341,1.675458 6.31239,4.765746 2.02897,3.053056 2.02897,7.185852 z m -29.2511,0 q 0,4.170027 2.36713,6.5529 2.42351,2.345641 7.72139,2.345641 5.41062,0 7.7214,-2.345641 2.36714,-2.382873 2.36714,-6.5529 0,-4.170028 -2.36714,-6.552901 -2.31078,-2.382873 -7.66504,-2.382873 -5.35424,0 -7.77775,2.382873 -2.36713,2.382873 -2.36713,6.552901 z"
             style="font-weight:bold;font-size:45.8087px;-inkscape-font-specification:'sans-serif, Bold';text-align:center;direction:rtl;text-anchor:middle;fill:#000080;stroke:#000080;stroke-width:1.03881;stroke-linejoin:round"
             id="path554" />
          <path
             d="M 187.21861,61.864691 H 168.90144 V 58.662705 L 173.8048,57.17341 V 39.972045 l -4.90336,-1.489296 v -3.201985 h 18.31717 v 3.201985 l -4.90336,1.489296 V 57.17341 l 4.90336,1.489295 z"
             style="font-weight:bold;font-size:45.8087px;-inkscape-font-specification:'sans-serif, Bold';text-align:center;direction:rtl;text-anchor:middle;fill:#000080;stroke:#000080;stroke-width:1.03881;stroke-linejoin:round"
             id="path556" />
          <path
             d="M 229.77081,61.864691 H 218.94959 L 201.42146,41.7592 h -0.22544 q 0.1127,1.898851 0.22544,3.797703 0.16908,1.898853 0.2818,3.797704 v 12.510084 h -7.60867 V 35.280764 h 10.76486 l 17.47176,19.919328 h 0.16908 q -0.0564,-1.861619 -0.16908,-3.686006 -0.1127,-1.824387 -0.22544,-3.648775 V 35.280764 h 7.66504 z"
             style="font-weight:bold;font-size:45.8087px;-inkscape-font-specification:'sans-serif, Bold';text-align:center;direction:rtl;text-anchor:middle;fill:#000080;stroke:#000080;stroke-width:1.03881;stroke-linejoin:round"
             id="path558" />
        </g>
      </g>
      <g
         id="g600"
         transform="matrix(0.44276618,0,0,0.42458483,90.74294,33.399829)">
        <path
           d="m 162.9554,94.666426 q 0,4.579584 -2.59259,7.632644 -2.59258,3.05305 -7.32686,4.57958 -4.73429,1.52653 -11.21575,1.52653 H 129.53361 V 81.821252 h 13.30108 q 9.46857,0 14.76645,3.313679 5.35426,3.276454 5.35426,9.531495 z m -9.01768,0.223392 q 0,-4.281724 -2.8744,-6.329499 -2.87438,-2.085016 -8.45407,-2.085016 h -4.45249 V 103.7139 h 3.60708 q 12.17388,0 12.17388,-8.824082 z"
           style="font-weight:bold;font-size:45.8087px;-inkscape-font-specification:'sans-serif, Bold';text-align:center;direction:rtl;text-anchor:middle;fill:#000080;stroke:#000080;stroke-width:1.03881;stroke-linejoin:round"
           id="path560" />
        <path
           d="M 194.23551,108.40518 H 171.07133 V 81.821252 h 23.16418 v 4.616817 h -14.65374 v 5.845489 h 13.63925 v 4.616809 h -13.63925 v 6.850763 h 14.65374 z"
           style="font-weight:bold;font-size:45.8087px;-inkscape-font-specification:'sans-serif, Bold';text-align:center;direction:rtl;text-anchor:middle;fill:#000080;stroke:#000080;stroke-width:1.03881;stroke-linejoin:round"
           id="path562" />
      </g>
      <g
         id="g591"
         transform="translate(6.0012892,-44.693766)">
        <path
           d="m 94.392835,128.36174 q 15.724585,0 15.724585,7.74434 0,2.71796 -2.08534,4.43065 -2.08534,1.71269 -5.18517,2.68074 l 11.44119,11.7282 h -9.86309 l -8.961326,-10.20168 h -4.790643 v 10.20168 h -8.62316 v -26.58393 z m -0.169082,4.43065 h -3.550712 v 7.55818 h 3.550712 q 3.437993,0 5.29789,-0.93081 1.859897,-0.93081 1.859897,-3.05305 0,-1.78716 -1.747177,-2.68074 -1.690815,-0.89358 -5.41061,-0.89358 z"
           style="font-weight:bold;font-size:45.8087px;-inkscape-font-specification:'sans-serif, Bold';text-align:center;direction:rtl;text-anchor:middle;fill:#000080;stroke:#000080;stroke-width:1.03881;stroke-linejoin:round"
           id="path564" />
        <path
           d="m 142.46837,154.94567 h -23.16418 v -26.58393 h 23.16418 v 4.61681 h -14.65374 v 5.84549 h 13.63925 v 4.61682 h -13.63925 v 6.85076 h 14.65374 z"
           style="font-weight:bold;font-size:45.8087px;-inkscape-font-specification:'sans-serif, Bold';text-align:center;direction:rtl;text-anchor:middle;fill:#000080;stroke:#000080;stroke-width:1.03881;stroke-linejoin:round"
           id="path566" />
        <path
           d="m 182.42795,128.36174 -13.6956,26.58393 h -9.29949 L 145.7936,128.36174 h 8.62318 l 7.5523,15.82376 q 0.22545,0.40956 0.61997,1.52654 0.45088,1.07973 0.90177,2.3084 0.45088,1.19144 0.61996,2.01055 0.16908,-0.81911 0.56361,-2.01055 0.45088,-1.22867 0.90177,-2.3084 0.45088,-1.11698 0.61995,-1.52654 l 7.60868,-15.82376 z"
           style="font-weight:bold;font-size:45.8087px;-inkscape-font-specification:'sans-serif, Bold';text-align:center;direction:rtl;text-anchor:middle;fill:#000080;stroke:#000080;stroke-width:1.03881;stroke-linejoin:round"
           id="path568" />
        <path
           d="m 210.66456,154.94567 h -23.16418 v -26.58393 h 23.16418 v 4.61681 h -14.65374 v 5.84549 h 13.63925 v 4.61682 h -13.63925 v 6.85076 h 14.65374 z"
           style="font-weight:bold;font-size:45.8087px;-inkscape-font-specification:'sans-serif, Bold';text-align:center;direction:rtl;text-anchor:middle;fill:#000080;stroke:#000080;stroke-width:1.03881;stroke-linejoin:round"
           id="path570" />
        <path
           d="m 242.79002,147.57366 q 0,3.53707 -3.88887,5.65932 -3.83251,2.08502 -10.93395,2.08502 -6.36873,0 -11.38482,-1.601 v -5.24977 q 2.87439,0.81912 5.91786,1.52653 3.09983,0.67019 6.1433,0.67019 3.15618,0 4.45247,-0.78189 1.35265,-0.81911 1.35265,-2.04778 0,-1.00527 -1.07084,-1.71269 -1.01449,-0.70741 -2.76167,-1.30313 -1.74718,-0.63296 -4.0016,-1.34037 -1.409,-0.44679 -3.04347,-1.04251 -1.63445,-0.63294 -3.15618,-1.52652 -1.46538,-0.93081 -2.42351,-2.23394 -0.95813,-1.30314 -0.95813,-3.12752 0,-3.57432 3.66344,-5.54763 3.66344,-2.01055 9.97581,-2.01055 3.1562,0 5.97422,0.48402 2.87439,0.48402 5.97421,1.37759 l -2.76166,4.39343 q -2.76167,-0.74465 -4.95973,-1.15421 -2.19806,-0.40955 -4.50884,-0.40955 -2.42351,0 -3.7198,0.74465 -1.29629,0.74464 -1.29629,1.93608 0,1.41483 1.91626,2.23394 1.91625,0.81912 5.69242,2.01055 3.09983,0.96805 5.24153,2.01055 2.19805,1.04251 3.38163,2.45734 1.18356,1.41483 1.18356,3.49985 z"
           style="font-weight:bold;font-size:45.8087px;-inkscape-font-specification:'sans-serif, Bold';text-align:center;direction:rtl;text-anchor:middle;fill:#000080;stroke:#000080;stroke-width:1.03881;stroke-linejoin:round"
           id="path572" />
      </g>
      <path
         id="rect456"
         style="fill:none;stroke:#000080;stroke-width:1.2823;stroke-linejoin:round"
         d="M 58.884861,9.5271692 H 274.85279 V 134.2876 H 58.884861 Z" />
    </g>
  </g>
</svg>
