<?xml version="1.0" encoding="UTF-8" standalone="no"?>
<!-- Created with Inkscape (http://www.inkscape.org/) -->

<svg
   width="106.8438mm"
   height="48.550972mm"
   viewBox="0 0 106.8438 48.550972"
   version="1.1"
   id="svg5"
   xmlns="http://www.w3.org/2000/svg"
   xmlns:svg="http://www.w3.org/2000/svg">
  <defs
     id="defs2" />
  <g
     id="layer1"
     transform="translate(-114.32821,-78.075479)">
    <g
       id="g1778">
      <path
         d="m 132.07396,94.706605 h 16.01323 v 18.362835 q -3.1687,0.94296 -6.62031,1.48888 -3.39503,0.54593 -7.75198,0.54593 -9.05342,0 -13.91962,-4.66515 -4.86622,-4.66516 -4.86622,-13.598437 0,-5.558478 2.4331,-9.62808 2.4897,-4.069603 7.18615,-6.302921 4.69646,-2.233319 11.48652,-2.233319 3.22528,0 6.33739,0.595552 3.11211,0.595552 5.65838,1.588138 l -2.82919,6.005144 q -1.86726,-0.843698 -4.24378,-1.389619 -2.37653,-0.545923 -4.97938,-0.545923 -3.73453,0 -6.50714,1.488879 -2.71602,1.488879 -4.24379,4.21849 -1.47118,2.679982 -1.47118,6.352549 0,3.474047 1.0751,6.154027 1.07509,2.67999 3.39502,4.21849 2.31994,1.48888 6.05447,1.48888 1.81068,0 3.05553,-0.14889 1.30142,-0.14888 2.37652,-0.34739 v -7.39477 h -7.63882 z"
         id="path1697"
         style="font-weight:bold;font-size:52.9926px;-inkscape-font-specification:'sans-serif, Bold';text-align:center;direction:rtl;text-anchor:middle;stroke:#000000;stroke-width:1.20172;stroke-linejoin:round" />
      <path
         d="m 220.57113,87.510358 v 27.097592 h -6.56372 l -1.0751,-3.47405 h -0.50926 q -1.47118,2.08443 -4.01745,3.02739 -2.54627,0.94296 -5.48863,0.94296 -4.92279,0 -7.97832,-2.33258 -2.99894,-2.38221 -2.99894,-7.59328 V 87.510358 h 8.60074 v 15.782112 q 0,2.8785 1.13168,4.36738 1.18825,1.43925 3.73453,1.43925 3.8477,0 5.20571,-2.28294 1.41459,-2.28295 1.41459,-6.6007 V 87.510358 Z"
         id="path1701"
         style="font-weight:bold;font-size:52.9926px;-inkscape-font-specification:'sans-serif, Bold';text-align:center;direction:rtl;text-anchor:middle;stroke:#000000;stroke-width:1.20172;stroke-linejoin:round" />
      <path
         id="path1542"
         style="fill:#ffffff;stroke:#696969;stroke-width:3.10295;stroke-linejoin:round"
         d="m 210.71046,121.05537 a 42.960365,4.0196085 0 0 1 -42.96037,4.01961 42.960365,4.0196085 0 0 1 -42.96036,-4.01961 42.960365,4.0196085 0 0 1 42.96036,-4.01961 42.960365,4.0196085 0 0 1 42.96037,4.01961 z" />
      <path
         d="m 185.26281,106.8304 q 0,6.74958 -4.07403,10.42215 -4.01746,3.67257 -10.97727,3.67257 -4.35695,0 -7.75197,-1.63777 -3.33846,-1.63776 -5.26231,-4.76442 -1.92384,-3.17626 -1.92384,-7.69253 0,-6.74962 4.01745,-10.372559 4.07404,-3.622939 11.09043,-3.622939 4.35695,0 7.69539,1.637767 3.33846,1.588138 5.2623,4.714783 1.92385,3.126658 1.92385,7.642948 z m -21.27551,0 q 0,3.97034 1.47117,6.20366 1.47118,2.18369 4.86622,2.18369 3.28186,0 4.75303,-2.18369 1.47118,-2.23332 1.47118,-6.20366 0,-4.02 -1.47118,-6.15407 -1.47117,-2.134059 -4.80963,-2.134059 -3.33844,0 -4.80962,2.134059 -1.47117,2.13407 -1.47117,6.15407 z"
         id="path1699"
         style="font-weight:bold;font-size:52.9926px;-inkscape-font-specification:'sans-serif, Bold';text-align:center;direction:rtl;text-anchor:middle;stroke:#000000;stroke-width:1.20172;stroke-linejoin:round" />
    </g>
  </g>
</svg>
