<?xml version="1.0" encoding="UTF-8" standalone="no"?>
<!-- Created with Inkscape (http://www.inkscape.org/) -->

<svg
   width="12.699989mm"
   height="12.700012mm"
   viewBox="0 0 12.699989 12.700012"
   version="1.1"
   id="svg5"
   xmlns="http://www.w3.org/2000/svg"
   xmlns:svg="http://www.w3.org/2000/svg">
  <defs
     id="defs2" />
  <g
     id="layer1"
     transform="translate(-71.559877,-103.35367)">
    <g
       id="g1167"
       transform="matrix(0.00446032,0.39915445,-0.39915445,0.00446032,118.8089,74.329243)">
      <path
         id="path400"
         style="fill:none;stroke:#000000;stroke-width:1.6;stroke-linejoin:round"
         d="M 102.57512,103.44157 A 15.107618,15.107618 0 0 1 87.467499,118.54918 15.107618,15.107618 0 0 1 72.35988,103.44157 15.107618,15.107618 0 0 1 87.467499,88.333948 15.107618,15.107618 0 0 1 102.57512,103.44157 Z" />
      <path
         id="path1008"
         style="stroke:#000000;stroke-width:0;stroke-linejoin:round"
         d="m 102.27758,102.97044 a 15.008794,15.374911 0 0 1 -7.530498,13.33047 15.008794,15.374911 0 0 1 -15.034801,-0.0464 15.008794,15.374911 0 0 1 -7.452019,-13.37666 l 15.008522,0.0926 z" />
    </g>
  </g>
</svg>
