<?xml version="1.0" encoding="UTF-8" standalone="no"?>
<!-- Created with Inkscape (http://www.inkscape.org/) -->

<svg
   width="739"
   height="483"
   viewBox="0 0 195.52709 127.79375"
   version="1.1"
   id="svg5"
   sodipodi:docname="logo-chamber01.svg"
   inkscape:version="1.2.2 (b0a8486541, 2022-12-01)"
   xmlns:inkscape="http://www.inkscape.org/namespaces/inkscape"
   xmlns:sodipodi="http://sodipodi.sourceforge.net/DTD/sodipodi-0.dtd"
   xmlns="http://www.w3.org/2000/svg"
   xmlns:svg="http://www.w3.org/2000/svg">
  <sodipodi:namedview
     id="namedview146"
     pagecolor="#ffffff"
     bordercolor="#000000"
     borderopacity="0.25"
     inkscape:showpageshadow="2"
     inkscape:pageopacity="0.0"
     inkscape:pagecheckerboard="0"
     inkscape:deskcolor="#d1d1d1"
     inkscape:document-units="mm"
     showgrid="false"
     inkscape:zoom="0.67178375"
     inkscape:cx="330.46348"
     inkscape:cy="235.19473"
     inkscape:window-width="1366"
     inkscape:window-height="731"
     inkscape:window-x="0"
     inkscape:window-y="0"
     inkscape:window-maximized="1"
     inkscape:current-layer="svg5" />
  <defs
     id="defs2" />
  <g
     id="g345"
     transform="matrix(1.0322007,0,0,1.0640707,-3.776472,-7.8956968)">
    <path
       id="rect1124"
       style="fill:#ffe4e1;stroke:#000080;stroke-width:1.86383;stroke-linejoin:round"
       d="m 30.41424,15.955371 h 136.2719 c 12.16544,0 21.95929,8.828143 21.95929,19.794042 V 102.7264 c 0,10.96588 -9.79385,19.79404 -21.95929,19.79404 H 30.41424 c -12.165447,0 -21.9592873,-8.82816 -21.9592873,-19.79404 V 35.749413 c 0,-10.965899 9.7938403,-19.794042 21.9592873,-19.794042 z" />
    <path
       d="m 55.389398,53.643323 q -7.940198,0 -12.556583,5.950906 -4.524078,5.859356 -4.524078,16.204777 0,10.345438 4.339414,16.113231 4.431734,5.676251 13.295202,5.676251 4.339414,0 8.309513,-1.007074 4.062418,-1.007075 8.124849,-2.563467 v 11.901803 q -7.847866,3.2959 -18.003918,3.2959 -10.525381,0 -17.357633,-4.11986 -6.73992,-4.21142 -10.06373,-11.718712 -3.231477,-7.598859 -3.231477,-17.669624 0,-9.887659 3.693118,-17.486509 3.693118,-7.598851 10.802342,-11.901815 7.109248,-4.302964 17.357633,-4.302964 4.893368,0 9.879069,1.098627 5.078032,1.007078 9.602098,3.204337 l -4.616385,11.169394 q -3.323801,-1.556391 -7.109248,-2.655019 -3.693116,-1.190182 -7.940186,-1.190182 z"
       id="path1544"
       style="font-weight:bold;font-size:266.667px;-inkscape-font-specification:'sans-serif, Bold';direction:rtl;white-space:pre;fill:#8b0000;stroke:#8b0000;stroke-width:0;stroke-linejoin:round" />
    <path
       d="M 132.08,93.021187 H 117.18172 L 100.98417,71.816059 95.440625,75.05671 V 93.021187 H 82.361319 V 42.720655 h 13.079306 v 23.036798 q 1.299264,-1.479428 2.598539,-2.958856 1.299264,-1.479426 2.598536,-2.958854 l 16.71725,-17.119088 h 14.55182 l -21.56786,22.26186 z"
       id="path1546"
       style="font-weight:bold;font-size:266.667px;-inkscape-font-specification:'sans-serif, Bold';direction:rtl;white-space:pre;fill:#8b0000;stroke:#8b0000;stroke-width:0;stroke-linejoin:round" />
    <path
       d="m 146.64902,109.17035 c -1.65205,-0.27859 -3.08583,-0.63944 -4.30133,-1.08254 -1.22494,-0.38514 -2.27426,-0.77044 -3.14794,-1.1559 l -3.05531,-12.045319 c 12.42529,-1.102849 20.46736,-5.030809 22.04674,-13.419701 l 7.95962,-51.512871 12.90311,2.175973 -9.46547,58.050278 c -0.86909,5.329956 -2.39416,9.477803 -4.57522,12.44352 -2.13354,3.03328 -4.77106,5.02912 -7.91256,5.98752 -3.15095,1.01634 -6.63483,1.20268 -10.45164,0.559 z"
       id="path1548"
       style="font-weight:bold;font-size:266.667px;-inkscape-font-specification:'sans-serif, Bold';direction:rtl;white-space:pre;fill:#000080;stroke:#000080;stroke-width:0;stroke-linejoin:round" />
    <path
       id="path1608"
       style="fill:#000080;stroke:#000080;stroke-width:1.3852;stroke-linejoin:round"
       d="m 166.08064,20.333033 a 8.6164058,7.68244 0 0 1 6.84601,-7.228926 8.6164058,7.68244 0 0 1 9.52182,4.176189 8.6164058,7.68244 0 0 1 -2.24415,9.247269 8.6164058,7.68244 0 0 1 -10.6064,0.293 l 5.09295,-6.196777 z" />
    <g
       id="g6232"
       transform="matrix(1.2276543,0,0,0.99848746,-89.137874,-30.500219)">
      <path
         id="rect3247"
         style="fill:#000080;stroke:#000080;stroke-width:0.760269;stroke-linejoin:round"
         d="m 140.52336,132.44405 h 7.88185 v 7.02615 h -7.88185 z" />
      <path
         id="rect3249"
         style="fill:#000080;stroke:#000080;stroke-width:0.760269;stroke-linejoin:round"
         d="m 153.33781,128.65389 h 10.22334 v 10.86822 h -10.22334 z" />
      <path
         id="rect3251"
         style="fill:#000080;stroke:#00008b;stroke-width:0.760269;stroke-linejoin:round"
         d="m 168.7298,125.62651 h 10.39427 v 13.91092 H 168.7298 Z" />
    </g>
  </g>
</svg>
