<?xml version="1.0" encoding="UTF-8" standalone="no"?>
<!-- Created with Inkscape (http://www.inkscape.org/) -->

<svg
   width="101.43428mm"
   height="65.299973mm"
   viewBox="0 0 101.43428 65.299973"
   version="1.1"
   id="svg5"
   xmlns="http://www.w3.org/2000/svg"
   xmlns:svg="http://www.w3.org/2000/svg">
  <defs
     id="defs2" />
  <g
     id="layer1"
     transform="translate(-127.21833,-82.34244)">
    <g
       id="g2875">
      <path
         id="rect1944"
         style="fill:#c0c0c0;stroke:#696969;stroke-width:1.74622;stroke-linejoin:round"
         d="m 128.09145,83.215546 h 99.68806 V 146.7693 h -99.68806 z" />
      <path
         style="fill:#c0c0c0;stroke:#696969;stroke-width:0.5;stroke-linejoin:round;stroke-dasharray:none"
         d="m 128.5004,83.669733 98.89085,63.070187 0.36844,-0.6104"
         id="path2104" />
      <path
         style="fill:#c0c0c0;stroke:#696969;stroke-width:0.5;stroke-linejoin:round;stroke-dasharray:none"
         d="M 128.29692,145.73314 C 227.45315,83.477194 227.45315,83.477194 227.45315,83.477194"
         id="path2106" />
      <g
         aria-label="logo"
         id="text2716"
         style="font-weight:bold;font-size:12.7px;-inkscape-font-specification:'sans-serif, Bold';text-align:center;direction:rtl;text-anchor:middle;fill:#c0c0c0;stroke:#696969;stroke-width:0.499999;stroke-linejoin:round">
        <path
           d="m 167.39879,117.56547 h -1.9177 v -9.652 h 1.9177 z"
           style="fill:#808080;stroke:#808080;stroke-width:0.5"
           id="path2878" />
        <path
           d="m 175.66649,114.08567 q 0,1.7272 -0.9144,2.667 -0.9017,0.9398 -2.4638,0.9398 -0.9779,0 -1.7399,-0.4191 -0.7493,-0.4191 -1.1811,-1.2192 -0.4318,-0.8128 -0.4318,-1.9685 0,-1.7272 0.9017,-2.6543 0.9144,-0.9271 2.4892,-0.9271 0.9779,0 1.7272,0.4191 0.7493,0.4064 1.1811,1.2065 0.4318,0.8001 0.4318,1.9558 z m -4.7752,0 q 0,1.016 0.3302,1.5875 0.3302,0.5588 1.0922,0.5588 0.7366,0 1.0668,-0.5588 0.3302,-0.5715 0.3302,-1.5875 0,-1.0287 -0.3302,-1.5748 -0.3302,-0.5461 -1.0795,-0.5461 -0.7493,0 -1.0795,0.5461 -0.3302,0.5461 -0.3302,1.5748 z"
           style="fill:#808080;stroke:#808080;stroke-width:0.5"
           id="path2880" />
        <path
           d="m 179.51459,110.50427 q 0.7112,0 1.1938,0.2794 0.4953,0.2667 0.8128,0.7239 h 0.0635 l 0.1651,-0.8763 h 1.6256 v 6.985 q 0,1.4732 -0.8509,2.2352 -0.8509,0.762 -2.6289,0.762 -0.8001,0 -1.4351,-0.1016 -0.635,-0.0889 -1.1938,-0.3175 v -1.6256 q 0.5842,0.254 1.1811,0.3937 0.5969,0.1397 1.3843,0.1397 0.7874,0 1.2065,-0.3683 0.4191,-0.3683 0.4191,-1.016 v -0.1905 q 0,-0.1524 0.0127,-0.4064 0.0254,-0.254 0.0508,-0.4445 h -0.0635 q -0.2921,0.4572 -0.7747,0.7366 -0.4699,0.2794 -1.1811,0.2794 -1.2065,0 -1.9177,-0.9271 -0.7112,-0.9271 -0.7112,-2.6543 0,-1.7272 0.7239,-2.667 0.7239,-0.9398 1.9177,-0.9398 z m 0.6223,1.5113 q -0.635,0 -0.9779,0.5461 -0.3302,0.5461 -0.3302,1.5748 0,2.0574 1.3462,2.0574 0.762,0 1.0795,-0.4445 0.3302,-0.4445 0.3302,-1.3843 v -0.2794 q 0,-1.0414 -0.3302,-1.5494 -0.3175,-0.5207 -1.1176,-0.5207 z"
           style="fill:#808080;stroke:#808080;stroke-width:0.5"
           id="path2882" />
        <path
           d="m 191.63039,114.08567 q 0,1.7272 -0.9144,2.667 -0.9017,0.9398 -2.4638,0.9398 -0.9779,0 -1.7399,-0.4191 -0.7493,-0.4191 -1.1811,-1.2192 -0.4318,-0.8128 -0.4318,-1.9685 0,-1.7272 0.9017,-2.6543 0.9144,-0.9271 2.4892,-0.9271 0.9779,0 1.7272,0.4191 0.7493,0.4064 1.1811,1.2065 0.4318,0.8001 0.4318,1.9558 z m -4.7752,0 q 0,1.016 0.3302,1.5875 0.3302,0.5588 1.0922,0.5588 0.7366,0 1.0668,-0.5588 0.3302,-0.5715 0.3302,-1.5875 0,-1.0287 -0.3302,-1.5748 -0.3302,-0.5461 -1.0795,-0.5461 -0.7493,0 -1.0795,0.5461 -0.3302,0.5461 -0.3302,1.5748 z"
           style="fill:#808080;stroke:#808080;stroke-width:0.5"
           id="path2884" />
      </g>
    </g>
  </g>
</svg>
